<?xml version="1.0" standalone="no"?>
<svg
  width="600"
  height="600"
  viewBox="0 0 600 600"
  xmlns="http://www.w3.org/2000/svg"
>
  <g transform="translate(300,300)">
    <path d="M159.2,-195.4C194.2,-160.4,202,-98.7,210,-39.1C218.1,20.5,226.4,78,202.5,114.6C178.6,151.1,122.5,166.7,73.4,171.5C24.3,176.3,-17.8,170.4,-59.7,157.8C-101.7,145.3,-143.5,126.1,-172.9,91.8C-202.3,57.4,-219.3,7.9,-211.5,-37.4C-203.6,-82.7,-170.9,-123.7,-131.5,-157.9C-92.1,-192.1,-46.1,-219.6,8,-229.1C62.1,-238.7,124.3,-230.4,159.2,-195.4Z" fill="#8ed1fc" />
  </g>
</svg>
  