<?xml version="1.0" standalone="no"?>
<svg
  width="600"
  height="600"
  viewBox="0 0 600 600"
  xmlns="http://www.w3.org/2000/svg"
>
  <g transform="translate(300,300)">
    <path d="M133.1,-147.7C163,-133.6,171.1,-82.6,178.1,-32.9C185,16.8,190.8,65.1,170.2,95.8C149.5,126.4,102.5,139.3,59.9,147.3C17.3,155.4,-20.7,158.5,-46,142.4C-71.3,126.3,-83.7,90.9,-118.5,56.1C-153.4,21.3,-210.6,-13,-209.7,-40.2C-208.8,-67.5,-149.7,-87.8,-105.1,-99.2C-60.4,-110.7,-30.2,-113.3,10.7,-126.1C51.6,-138.9,103.3,-161.7,133.1,-147.7Z" fill="#00d084" />
  </g>
</svg>
  